<?xml version="1.0" standalone="no"?>
<!DOCTYPE svg PUBLIC "-//W3C//DTD SVG 20010904//EN"
 "http://www.w3.org/TR/2001/REC-SVG-20010904/DTD/svg10.dtd">
<svg version="1.0" xmlns="http://www.w3.org/2000/svg"
 width="383.000000pt" height="383.000000pt" viewBox="0 0 383.000000 383.000000"
 preserveAspectRatio="xMidYMid meet">
<metadata>
Created by potrace 1.14, written by Peter Selinger 2001-2017
</metadata>
<g transform="translate(0.000000,383.000000) scale(0.100000,-0.100000)"
fill="#000000" stroke="none">
<path d="M1778 3805 c-2 -1 -24 -5 -49 -8 -150 -18 -331 -90 -495 -196 -43
-28 -86 -51 -95 -51 -37 0 -208 -63 -289 -107 -303 -163 -513 -437 -590 -769
-14 -59 -32 -102 -63 -151 -86 -135 -133 -258 -163 -433 -19 -113 -12 -323 16
-440 28 -117 77 -235 142 -343 33 -55 54 -104 63 -149 94 -445 450 -800 898
-898 27 -6 76 -29 109 -52 119 -80 322 -159 452 -174 28 -4 54 -8 58 -11 12
-6 217 -4 278 3 156 18 353 89 485 175 49 32 89 49 134 58 123 24 254 77 371
149 77 48 92 59 169 127 180 158 297 356 356 596 15 63 35 114 58 150 124 194
189 424 186 652 -3 216 -67 423 -189 612 -22 33 -42 75 -45 93 -56 324 -287
638 -589 801 -86 47 -168 78 -273 106 -65 17 -110 36 -152 65 -130 88 -299
156 -460 184 -63 11 -313 20 -323 11z m377 -85 c97 -24 223 -73 295 -114 l45
-26 -80 -1 c-78 -1 -92 -2 -185 -16 -63 -9 -63 -9 -142 -33 -39 -12 -94 -32
-122 -44 -47 -21 -55 -22 -79 -10 -102 54 -313 101 -467 103 -52 1 -96 3 -97
5 -8 7 162 86 237 110 129 41 220 54 370 51 100 -2 158 -8 225 -25z m-575
-214 c14 -3 39 -8 55 -12 32 -6 184 -53 198 -61 5 -3 -15 -21 -45 -41 -124
-83 -236 -189 -313 -299 -33 -47 -37 -48 -116 -33 -86 17 -281 14 -379 -5 -14
-3 -35 -7 -48 -10 -13 -2 -32 -7 -43 -10 -27 -9 -24 6 22 98 55 110 117 197
209 288 62 63 84 79 120 87 47 10 296 9 340 -2z m1046 -23 c53 -42 122 -116
176 -190 48 -66 143 -241 135 -250 -3 -2 -29 0 -59 6 -29 6 -71 13 -93 16 -44
6 -245 7 -285 1 -14 -2 -45 -7 -70 -11 -45 -7 -46 -6 -77 37 -75 104 -180 208
-280 275 -45 31 -80 59 -78 63 8 13 166 59 250 74 46 8 136 13 211 12 130 -2
131 -2 170 -33z m333 -99 c226 -123 409 -332 502 -574 38 -97 37 -108 -7 -65
-52 52 -151 128 -214 164 -54 32 -69 39 -174 85 -46 20 -56 30 -66 62 -32 99
-121 248 -214 357 l-58 67 82 -30 c45 -16 112 -46 149 -66z m-1925 40 c-85
-91 -181 -250 -229 -376 -14 -39 -24 -49 -53 -59 -97 -32 -271 -143 -365 -235
-66 -62 -66 -61 -15 70 94 242 287 453 523 573 65 33 167 73 173 68 1 -1 -14
-20 -34 -41z m984 -94 c94 -62 214 -176 270 -254 30 -41 31 -47 15 -52 -108
-32 -223 -87 -325 -156 -31 -21 -59 -38 -62 -38 -3 0 -40 22 -81 50 -87 56
-161 93 -255 127 -37 13 -64 28 -62 35 4 15 55 81 107 137 73 78 255 211 291
211 7 0 53 -27 102 -60z m870 -346 c45 -10 75 -22 81 -32 18 -36 42 -206 42
-304 -1 -91 -14 -214 -24 -224 -2 -3 -34 9 -70 26 -118 53 -231 86 -343 99 -6
0 -14 24 -18 51 -11 81 -54 219 -95 307 -46 96 -52 90 99 99 52 4 96 7 97 8 6
5 166 -16 231 -30z m-1503 11 c20 -6 20 -8 -12 -73 -43 -89 -80 -200 -95 -291
-13 -79 -17 -83 -88 -94 -19 -3 -44 -8 -55 -10 -11 -3 -38 -10 -60 -15 -46
-10 -189 -68 -223 -90 -12 -8 -25 -12 -28 -9 -10 10 -25 143 -26 232 -1 102 9
181 33 276 8 34 13 37 74 54 36 9 88 21 117 25 57 9 330 5 363 -5z m166 -44
c109 -38 309 -146 309 -167 0 -3 -25 -31 -56 -62 -30 -30 -78 -86 -106 -124
-35 -46 -56 -67 -67 -64 -37 11 -112 19 -198 21 -51 1 -96 4 -99 7 -17 18 35
202 91 326 42 91 43 92 126 63z m853 -73 c46 -99 83 -218 88 -282 l3 -38 -106
-3 c-96 -3 -142 -8 -190 -21 -11 -3 -33 19 -68 66 -29 39 -77 95 -107 124 -30
30 -54 57 -54 61 0 20 196 126 305 166 82 29 82 29 129 -73z m808 -24 c91 -55
197 -143 257 -213 51 -59 54 -66 60 -131 15 -160 -10 -341 -67 -486 l-19 -46
-58 83 c-69 99 -201 230 -279 279 l-56 35 5 50 c3 28 9 77 13 110 13 101 5
252 -18 350 -5 22 -10 43 -10 47 0 11 102 -36 172 -78z m-2459 -1 c-19 -98
-19 -304 -1 -405 l14 -78 -36 -24 c-108 -71 -257 -225 -320 -330 l-24 -39 -19
44 c-48 112 -76 273 -73 425 2 89 6 117 20 139 32 48 158 169 229 219 54 39
208 126 221 126 2 0 -3 -35 -11 -77z m1261 -208 c68 -78 101 -123 95 -129 -2
-2 -31 -12 -64 -24 -33 -11 -76 -27 -95 -35 -33 -14 -39 -13 -130 21 -52 20
-97 37 -99 39 -8 6 56 89 121 155 79 83 76 83 172 -27z m-460 -159 c28 -4 52
-9 55 -11 2 -3 -6 -26 -19 -52 -13 -26 -31 -68 -41 -93 -9 -24 -23 -48 -30
-51 -57 -29 -173 -79 -176 -76 -15 15 -31 266 -19 286 6 9 148 7 230 -3z m953
-14 c9 -38 -5 -213 -22 -269 -3 -8 -26 -2 -72 21 -37 18 -78 36 -90 40 -12 4
-25 17 -28 29 -4 12 -23 57 -42 100 -20 42 -34 79 -32 82 8 8 133 20 207 20
68 0 73 -1 79 -23z m-1249 -74 c1 -48 6 -116 12 -150 5 -35 10 -68 10 -75 0
-6 -28 -31 -62 -56 -35 -25 -88 -68 -118 -96 -30 -27 -58 -50 -62 -51 -9 0
-70 87 -110 160 -29 51 -88 197 -88 215 0 2 35 20 77 40 84 40 205 81 268 91
22 3 41 7 43 8 1 2 8 3 16 3 10 0 13 -22 14 -89z m1382 78 c84 -12 330 -106
330 -126 0 -17 -41 -122 -70 -181 -39 -80 -66 -124 -102 -171 l-28 -36 -53 51
c-28 28 -79 71 -112 95 -33 24 -61 45 -62 46 -2 2 2 27 7 57 15 84 19 118 19
202 1 70 3 78 19 73 9 -3 33 -7 52 -10z m-889 -37 c97 -32 97 -31 35 -72 -53
-35 -176 -75 -176 -57 0 18 65 150 74 150 2 0 32 -9 67 -21z m441 -59 c20 -41
35 -76 33 -78 -12 -13 -128 27 -178 61 -52 35 -57 41 -41 50 27 15 127 46 139
43 6 -1 27 -36 47 -76z m-1959 -25 c9 -143 52 -317 103 -417 13 -24 13 -32 0
-55 -17 -34 -74 -202 -81 -240 -2 -16 -8 -50 -11 -78 -4 -27 -8 -57 -10 -65
-1 -8 -3 -42 -4 -75 l-1 -60 -34 66 c-72 140 -106 282 -110 450 -3 134 11 237
45 352 22 71 88 223 94 216 2 -2 6 -44 9 -94z m3412 19 c37 -78 77 -206 90
-284 4 -25 9 -100 10 -167 3 -130 -14 -242 -54 -361 -24 -70 -81 -192 -90
-192 -3 0 -6 27 -6 60 1 114 -36 284 -87 409 -25 60 -29 77 -19 93 51 82 104
308 105 455 1 35 4 63 8 63 4 0 24 -34 43 -76z m-1701 -19 c18 -14 16 -15 -30
-15 -45 1 -48 2 -30 15 24 19 36 18 60 0z m1209 -130 c76 -63 164 -166 219
-256 l37 -61 -22 -39 c-61 -107 -183 -244 -289 -324 l-62 -47 -12 29 c-78 187
-114 254 -199 368 -14 19 -12 24 17 59 56 69 139 228 182 349 6 18 7 18 33 -1
16 -11 59 -46 96 -77z m-2294 -95 c33 -66 116 -196 132 -205 5 -3 -15 -41 -45
-83 -57 -82 -111 -184 -141 -267 -10 -27 -21 -54 -25 -58 -7 -8 -142 98 -186
145 -47 51 -112 138 -143 191 l-33 57 33 53 c70 115 177 232 283 312 l49 36
23 -59 c12 -32 36 -87 53 -122z m1223 130 c40 -19 204 -193 210 -222 3 -15 4
-80 3 -146 -2 -137 -1 -137 -97 -235 -100 -102 -100 -102 -268 -104 -80 -1
-158 1 -174 4 -33 7 -149 112 -192 174 -28 42 -29 44 -29 179 0 135 0 137 29
174 70 93 175 182 221 189 61 8 270 0 297 -13z m-462 -23 c0 -2 -11 -14 -25
-27 -27 -25 -35 -12 -9 14 14 14 34 22 34 13z m634 -23 c10 -25 1 -27 -19 -4
-15 17 -16 20 -3 20 9 0 19 -7 22 -16z m-761 -75 c-8 -34 -29 -84 -48 -111
l-34 -51 -15 38 c-22 53 -38 116 -31 123 9 9 119 61 131 61 8 1 7 -17 -3 -60z
m959 -6 c16 -14 15 -19 -8 -81 -13 -36 -26 -67 -28 -69 -7 -7 -67 96 -72 124
-3 15 -9 42 -13 59 l-9 32 57 -25 c31 -14 64 -32 73 -40z m-1116 -130 c19 -49
34 -92 34 -97 0 -8 -59 -163 -67 -175 -5 -8 -89 56 -156 118 l-68 64 28 30
c38 41 186 158 192 152 2 -3 19 -44 37 -92z m1269 26 c33 -26 75 -62 92 -81
l33 -34 -58 -55 c-70 -69 -141 -123 -149 -116 -3 3 -20 43 -38 88 -34 82 -34
83 -16 118 10 20 26 59 36 88 11 31 23 49 29 46 6 -4 38 -28 71 -54z m-1135
-126 c-1 -31 -3 -35 -11 -20 -6 9 -7 26 -4 37 10 30 15 24 15 -17z m901 -10
c-9 -15 -10 -12 -10 17 0 29 1 32 10 18 7 -12 7 -24 0 -35z m-1286 -74 c22
-22 77 -68 121 -100 l82 -60 -8 -37 c-14 -60 -21 -134 -22 -216 l-1 -77 -46 7
c-117 17 -355 107 -367 139 -6 14 32 118 71 195 33 67 114 190 124 190 4 0 25
-18 46 -41z m1738 -26 c69 -105 147 -274 147 -319 0 -32 -230 -121 -357 -139
l-43 -6 0 68 c-1 72 -4 109 -21 212 -5 35 -9 64 -7 66 2 1 23 15 48 32 25 17
74 58 110 91 36 34 68 61 72 62 3 0 27 -30 51 -67z m-2408 1 c57 -97 178 -225
288 -306 l58 -43 -6 -45 c-4 -25 -9 -61 -12 -80 -15 -100 -3 -321 21 -398 10
-31 -4 -28 -92 18 -124 64 -273 187 -348 285 -25 34 -28 44 -30 138 -2 90 2
143 21 260 5 31 66 217 71 217 1 0 14 -21 29 -46z m1081 -125 l7 -51 -72 37
c-80 40 -77 30 -39 133 l20 53 38 -60 c26 -41 41 -77 46 -112z m943 109 c12
-34 21 -67 21 -73 0 -11 -34 -30 -108 -62 -19 -8 -31 -10 -28 -5 3 5 8 23 11
39 3 17 8 40 12 50 7 17 66 113 70 113 0 0 11 -28 22 -62z m1039 -40 c40 -126
55 -223 55 -353 0 -80 -5 -119 -16 -140 -21 -41 -134 -153 -215 -214 -70 -53
-248 -149 -257 -139 -3 3 -1 25 4 49 5 24 13 64 17 89 7 49 7 261 0 297 -2 11
-7 41 -11 65 l-7 44 54 34 c72 46 245 221 293 297 22 35 43 63 47 63 4 0 20
-42 36 -92z m-1996 -173 c40 -15 48 -23 63 -63 10 -26 31 -72 46 -103 l28 -57
-37 -9 c-20 -5 -88 -10 -150 -12 l-113 -3 2 94 c1 51 6 121 12 155 l10 62 46
-23 c25 -13 67 -31 93 -41z m1014 -21 c7 -43 11 -110 10 -149 l-1 -70 -110 0
c-60 0 -127 4 -147 8 l-38 8 27 52 c14 29 34 75 43 102 16 48 20 51 101 92 46
23 89 41 94 39 6 -1 15 -38 21 -82z m-906 61 c7 -9 8 -15 2 -15 -5 0 -12 7
-16 15 -3 8 -4 15 -2 15 2 0 9 -7 16 -15z m665 5 c-3 -5 -11 -10 -16 -10 -6 0
-7 5 -4 10 3 6 11 10 16 10 6 0 7 -4 4 -10z m-483 -153 c38 -25 64 -49 58 -52
-16 -10 -122 -45 -136 -45 -12 0 -61 84 -84 144 -8 23 -8 23 43 11 29 -7 82
-33 119 -58z m451 56 c-25 -64 -75 -153 -86 -153 -19 0 -130 39 -139 48 -11
11 117 94 167 108 58 17 65 17 58 -3z m-261 -43 c-40 -25 -53 -25 -93 -1 l-31
19 78 1 79 1 -33 -20z m-942 -149 c36 -12 105 -30 154 -40 59 -12 90 -23 92
-32 21 -136 58 -256 106 -353 16 -32 28 -60 26 -62 -12 -12 -141 -22 -243 -19
-142 4 -300 36 -315 65 -34 64 -53 353 -30 469 5 29 10 55 10 57 0 3 30 -11
68 -30 37 -18 96 -43 132 -55z m1984 -136 c1 -190 -20 -320 -52 -329 -105 -30
-145 -36 -272 -41 -96 -3 -235 7 -246 18 -2 2 14 44 36 95 38 87 68 190 87
292 l9 44 70 12 c81 14 233 63 302 98 l47 24 9 -21 c6 -12 10 -98 10 -192z
m-993 149 c52 -20 95 -37 96 -38 5 -5 -112 -142 -152 -178 l-40 -37 -29 27
c-17 15 -35 32 -41 37 -32 30 -124 149 -119 157 3 4 13 8 22 9 9 0 46 13 82
29 36 15 70 28 76 29 7 1 54 -15 105 -35z m-320 -101 c18 -27 63 -79 99 -117
36 -37 65 -73 65 -79 0 -16 -170 -114 -256 -147 -135 -52 -129 -53 -172 33
-38 79 -80 210 -92 290 l-7 47 93 1 c52 0 117 4 144 9 89 13 89 13 126 -37z
m619 31 c19 -2 70 -4 113 -4 42 -1 77 -4 77 -8 0 -4 -7 -38 -15 -77 -18 -86
-45 -167 -87 -258 -37 -80 -32 -79 -167 -27 -86 33 -256 131 -256 147 0 6 30
42 66 80 36 38 80 91 99 117 l33 48 51 -7 c28 -4 67 -9 86 -11z m-1764 -321
c46 -29 113 -67 151 -84 37 -17 74 -34 81 -37 8 -4 25 -34 38 -67 54 -133 127
-250 218 -350 30 -33 53 -61 52 -62 -4 -5 -133 45 -186 72 -248 126 -452 355
-544 613 -14 40 -26 78 -26 84 0 6 30 -18 67 -52 37 -35 104 -87 149 -117z
m2940 129 c-27 -102 -125 -284 -201 -372 -141 -165 -356 -308 -539 -359 l-39
-10 39 42 c21 23 42 44 45 47 4 3 30 37 59 75 49 64 160 274 160 302 0 6 31
23 70 38 120 46 287 154 375 244 22 22 41 41 42 41 0 0 -4 -22 -11 -48z
m-1312 -225 c49 -21 102 -41 117 -44 16 -3 29 -10 29 -15 0 -15 -92 -127 -147
-179 -67 -64 -128 -111 -197 -152 l-59 -36 -36 19 c-54 28 -154 100 -203 146
-80 77 -168 181 -168 200 0 5 28 18 61 28 74 23 205 89 285 143 l58 40 85 -56
c47 -30 126 -72 175 -94z m-1249 -67 c104 -26 382 -34 470 -13 l39 9 58 -77
c71 -94 185 -202 280 -265 l70 -47 -33 -14 c-182 -77 -526 -103 -607 -45 -56
40 -171 170 -224 252 -47 71 -108 188 -108 205 0 7 9 6 55 -5z m1996 -38 c-41
-104 -119 -219 -219 -324 -110 -115 -119 -119 -259 -120 -156 -1 -233 11 -375
58 -43 14 -78 29 -77 32 0 4 32 27 71 52 83 53 237 201 292 282 21 31 43 55
50 53 84 -30 407 -27 496 5 40 14 41 12 21 -38z m-973 -406 c96 -50 306 -97
439 -100 46 0 83 -2 83 -3 0 -2 -30 -18 -67 -37 -261 -130 -568 -152 -848 -60
-67 22 -215 89 -215 97 0 1 30 2 68 3 155 2 306 31 430 84 80 34 76 33 110 16z"/>
<path d="M1804 2164 c-93 -45 -137 -124 -137 -248 0 -126 45 -209 136 -251 62
-29 162 -29 220 -1 42 21 91 78 101 118 6 26 -3 34 -49 44 -5 1 -18 5 -27 9
-13 5 -20 -2 -31 -28 -43 -101 -174 -102 -218 -1 -28 62 -27 168 1 224 44 87
170 93 211 11 8 -14 14 -27 15 -29 1 -3 104 19 104 23 0 1 -6 18 -14 36 -44
105 -194 150 -312 93z"/>
</g>
</svg>
